# xmcd
#
# Track frame offsets:
#	150
#	72042
#	112322
#	152549
#	181801
#	206990
#	237206
#	266015
#	307132
#
# Disc length: 4401 seconds
#
# Revision: 0
# Processed by: cddbd v1.5.2PL0 Copyright (c) Steve Scherf et al.
# Submitted via: audiograbber 1.83.01
#
DISCID=81112f09
DTITLE=Grateful Dead - 94-10-15 Madison Square Garden, New York NY
DYEAR=1900
DGENRE=
TTITLE0=Shakedown Street
TTITLE1=Little Red Rooster
TTITLE2=Stagger Lee
TTITLE3=Black Throated Wind
TTITLE4=Just Like Tom Thumb's Blues
TTITLE5=Candyman
TTITLE6=Easy Answers
TTITLE7=Deal
TTITLE8=I Want To Tell You
EXTD=
EXTT0=
EXTT1=
EXTT2=
EXTT3=
EXTT4=
EXTT5=
EXTT6=
EXTT7=
EXTT8=
PLAYORDER=
